<?xml version="1.0" standalone="no"?>
<!DOCTYPE svg PUBLIC "-//W3C//DTD SVG 20010904//EN"
 "http://www.w3.org/TR/2001/REC-SVG-20010904/DTD/svg10.dtd">
<svg version="1.0" xmlns="http://www.w3.org/2000/svg"
 width="471.000000pt" height="485.000000pt" viewBox="0 0 471.000000 485.000000"
 preserveAspectRatio="xMidYMid meet">

<g transform="translate(0.000000,485.000000) scale(0.100000,-0.100000)"
fill="#000000" stroke="none">
<path d="M2225 4825 c-431 -57 -832 -229 -1170 -502 -55 -45 -118 -100 -140
-124 -22 -23 -1 -8 46 34 415 363 893 561 1442 596 l122 8 -100 0 c-55 1 -145
-5 -200 -12z"/>
<path d="M2655 4829 c201 -12 450 -59 604 -114 24 -8 46 -13 49 -11 6 7 -178
62 -284 85 -134 30 -313 51 -412 50 -81 -2 -78 -2 43 -10z"/>
<path d="M3321 4696 c9 -8 153 -65 156 -62 2 2 -30 18 -71 35 -68 28 -96 37
-85 27z"/>
<path d="M2530 4673 c0 -6 57 -13 138 -16 463 -21 951 -230 1322 -566 l55 -50
-226 -227 -227 -227 -73 64 c-98 84 -259 187 -364 234 l-85 38 0 48 c0 65 -34
167 -70 211 -88 106 -313 145 -582 99 -327 -57 -807 -265 -1191 -518 -56 -38
-109 -72 -117 -77 -31 -20 76 99 155 171 237 217 505 361 815 438 175 44 308
58 495 52 256 -8 454 -51 678 -147 48 -21 89 -34 92 -30 5 8 -43 30 -190 87
-112 43 -314 88 -465 104 -435 44 -942 -103 -1305 -380 -78 -60 -241 -217
-296 -287 -24 -30 -96 -99 -159 -153 -427 -366 -626 -738 -555 -1039 21 -87
47 -134 116 -208 32 -35 59 -62 59 -60 0 2 30 -9 67 -24 l68 -27 13 -59 c21
-100 54 -204 65 -204 5 0 6 7 3 15 -10 27 -35 118 -50 183 l-14 62 79 0 c55 0
81 -4 84 -12 2 -7 15 -56 30 -109 l26 -96 -40 -63 c-22 -34 -43 -71 -46 -81
-9 -28 -21 -15 -40 41 -9 28 -21 50 -26 50 -5 0 2 -29 15 -65 20 -55 23 -78
19 -152 -4 -72 -1 -94 14 -123 22 -42 76 -80 114 -80 23 0 37 -12 83 -73 85
-116 201 -242 300 -324 100 -84 253 -188 331 -225 28 -12 52 -26 55 -30 12
-15 260 -108 354 -132 293 -76 620 -77 911 -5 110 27 145 39 145 49 0 4 -27
-1 -61 -11 -95 -30 -243 -57 -379 -70 -523 -49 -1070 152 -1455 536 -79 79
-225 258 -225 276 0 4 17 10 38 14 48 9 159 67 210 110 l39 34 61 -77 c33 -43
72 -88 86 -101 46 -43 28 -8 -29 57 -30 35 -66 78 -80 97 l-26 33 73 94 c40
51 93 126 117 166 24 39 46 72 50 72 14 0 262 -109 304 -133 23 -14 52 -36 64
-49 l23 -24 -88 -72 c-117 -94 -249 -227 -273 -274 -51 -99 -4 -124 118 -63
137 68 264 237 268 357 l2 49 89 65 c80 59 117 94 99 94 -4 0 -49 -32 -101
-70 l-95 -71 -42 36 c-44 38 -134 84 -264 136 -43 17 -81 34 -85 37 -4 4 31
83 78 175 84 165 85 167 142 200 179 103 312 126 312 52 0 -14 5 -25 10 -25 6
0 10 13 10 30 0 65 -83 77 -206 28 l-59 -24 -22 24 c-13 12 -23 29 -23 36 0 7
25 74 56 147 67 161 208 537 224 598 17 65 7 91 -34 91 -44 0 -56 -16 -107
-135 -84 -198 -220 -394 -409 -589 -63 -65 -153 -147 -200 -182 -86 -65 -265
-162 -277 -150 -4 3 -12 57 -19 119 l-13 112 4 -122 5 -121 -70 -16 c-38 -9
-93 -16 -122 -16 -50 0 -124 13 -134 23 -3 2 -9 60 -15 127 -27 310 44 659
193 955 52 103 59 112 175 208 304 254 823 532 1116 599 57 13 97 27 97 34 0
12 105 40 234 63 136 25 299 4 376 -48 63 -42 97 -102 114 -200 7 -39 18 -38
-144 -2 -91 21 -322 41 -309 27 3 -4 57 -11 120 -16 113 -10 324 -54 334 -70
8 -13 -13 -110 -36 -168 -24 -60 -17 -79 25 -68 28 7 67 79 87 159 13 56 12
56 129 -3 415 -209 713 -595 804 -1042 21 -102 20 -121 -6 -145 -27 -25 -108
-66 -115 -59 -3 2 -6 38 -8 78 -1 40 -6 81 -10 90 -9 24 -52 15 -143 -29 -41
-19 -76 -33 -79 -30 -2 3 1 15 7 27 15 28 6 50 -20 50 -12 0 -29 -15 -47 -42
-64 -103 -79 -121 -119 -144 -57 -34 -89 -29 -88 11 0 17 4 46 8 67 7 32 5 37
-14 43 -24 8 -52 -10 -149 -92 -58 -49 -101 -67 -101 -42 0 20 69 114 104 141
19 15 50 35 70 45 33 15 37 15 54 0 23 -21 36 -21 52 -2 10 12 9 20 -4 40 -14
21 -24 25 -64 25 -63 0 -141 -47 -242 -144 -90 -88 -132 -113 -150 -91 -10 12
-9 28 8 78 25 76 140 349 233 553 38 83 69 156 69 162 0 18 -32 23 -54 9 -12
-8 -66 -95 -120 -193 -54 -99 -123 -223 -153 -276 l-55 -98 -77 0 c-121 -1
-205 -50 -256 -151 -37 -72 -108 -122 -150 -105 -18 6 -19 41 -4 85 9 27 9 36
-4 48 -22 22 -46 11 -138 -68 -113 -95 -152 -93 -88 4 35 53 86 99 137 123 30
14 35 14 58 -1 32 -20 54 -13 54 18 0 34 -19 47 -68 47 -88 0 -226 -100 -278
-201 -30 -60 -30 -83 -2 -103 45 -32 135 -13 197 41 44 37 51 40 51 18 0 -9
11 -27 25 -40 33 -34 69 -32 168 10 12 5 17 3 17 -7 0 -28 35 -48 81 -48 59 0
115 36 215 137 42 43 73 69 69 58 -14 -41 -17 -112 -6 -133 16 -29 68 -37 116
-18 37 16 38 16 61 -9 42 -45 127 -31 209 35 l40 32 13 -31 c17 -44 50 -57
110 -43 38 8 48 8 55 -4 15 -26 50 -14 111 39 118 102 188 149 201 135 3 -3
-1 -24 -10 -46 -9 -22 -15 -59 -13 -83 l3 -44 52 -3 52 -3 4 -42 4 -42 1 47
c2 45 4 49 42 68 l40 21 10 -25 c22 -60 129 -48 220 24 45 35 50 36 50 10 0
-11 10 -30 21 -41 40 -40 139 -11 224 63 30 26 45 48 45 64 0 33 -20 30 -56
-7 -47 -51 -105 -89 -134 -89 -34 0 -41 16 -29 66 12 55 11 71 -6 78 -24 9
-55 -9 -130 -74 -100 -88 -148 -96 -102 -17 31 52 103 121 152 144 32 16 36
15 54 -1 40 -37 82 5 45 45 -39 43 -142 14 -242 -68 -24 -19 -44 -34 -46 -32
-1 2 -9 38 -16 79 -39 233 -170 502 -339 698 -34 40 -61 76 -59 80 2 4 103
106 225 226 l223 220 32 -30 33 -29 -27 31 c-16 16 -28 34 -28 39 0 5 28 38
62 72 35 35 56 63 47 63 -8 0 -53 34 -99 76 -111 99 -360 280 -360 261 0 -3
24 -20 53 -37 84 -52 228 -164 311 -241 l77 -72 -52 -53 -53 -53 -50 47 c-365
341 -853 550 -1355 578 -78 5 -121 3 -121 -3z m-1686 -1363 c-134 -275 -191
-549 -181 -873 l5 -177 -31 17 c-51 29 -114 100 -143 161 -37 76 -45 226 -19
334 30 123 96 257 189 381 49 66 207 240 212 234 2 -2 -13 -36 -32 -77z m1954
-535 c6 -42 -188 -238 -217 -220 -6 3 -11 21 -11 40 0 66 42 134 109 177 55
35 114 36 119 3z m-1027 -67 c-28 -80 -101 -241 -117 -259 -8 -9 -55 -31 -103
-48 -153 -55 -308 -142 -426 -240 -53 -44 -60 -42 -67 18 -3 32 -1 34 47 51
76 26 182 82 265 141 87 61 256 223 337 321 69 85 89 90 64 16z m2075 -116
c-4 -3 -11 -1 -17 5 -7 7 -6 19 3 39 l13 29 3 -34 c2 -18 1 -36 -2 -39z
m-2071 -192 c-39 -26 -53 -26 -30 0 10 11 28 20 39 20 18 0 17 -3 -9 -20z
m-171 -48 c8 -13 -37 -103 -78 -156 -20 -26 -43 -71 -51 -101 -24 -79 -206
-365 -234 -365 -10 0 -104 191 -127 259 l-19 53 60 55 c104 95 239 183 370
240 55 24 71 27 79 15z m-556 -199 l11 -48 -62 -63 -62 -63 -21 68 c-12 37
-24 82 -27 99 -6 31 -6 31 51 41 100 18 97 18 110 -34z m61 -195 c13 -35 46
-106 73 -158 l50 -95 -62 -57 c-71 -66 -155 -111 -197 -106 -23 2 -34 14 -61
65 -31 59 -32 63 -21 115 6 29 23 75 37 103 l25 49 33 -64 c40 -78 45 -66 8
19 -25 58 -26 62 -9 87 21 33 85 104 94 104 3 0 17 -28 30 -62z m817 -250
c-11 -74 -60 -158 -133 -230 -70 -69 -167 -128 -209 -128 -34 0 -32 36 4 86
50 68 315 314 339 314 3 0 3 -19 -1 -42z"/>
<path d="M577 2974 c-4 -4 -7 -17 -7 -28 1 -19 1 -20 11 -3 11 19 8 43 -4 31z"/>
<path d="M540 2783 c0 -22 2 -25 10 -13 13 20 13 40 0 40 -5 0 -10 -12 -10
-27z"/>
<path d="M520 2610 c0 -11 5 -20 10 -20 6 0 10 9 10 20 0 11 -4 20 -10 20 -5
0 -10 -9 -10 -20z"/>
<path d="M520 2435 c0 -14 5 -25 10 -25 6 0 10 11 10 25 0 14 -4 25 -10 25 -5
0 -10 -11 -10 -25z"/>
<path d="M3491 4627 c2 -2 54 -29 114 -61 61 -31 101 -50 91 -41 -23 17 -191
105 -202 105 -4 0 -5 -2 -3 -3z"/>
<path d="M2480 4500 c-12 -8 -9 -10 13 -10 16 0 26 4 22 10 -8 12 -16 12 -35
0z"/>
<path d="M2305 4490 c-18 -8 -17 -9 8 -9 15 -1 27 4 27 9 0 12 -8 12 -35 0z"/>
<path d="M2655 4490 c3 -5 13 -10 21 -10 8 0 14 5 14 10 0 6 -9 10 -21 10 -11
0 -17 -4 -14 -10z"/>
<path d="M2830 4470 c20 -13 40 -13 40 0 0 6 -12 10 -27 10 -22 0 -25 -2 -13
-10z"/>
<path d="M2120 4460 c0 -13 20 -13 40 0 12 8 9 10 -12 10 -16 0 -28 -4 -28
-10z"/>
<path d="M2990 4442 c0 -5 11 -12 25 -14 14 -3 25 -1 25 3 0 5 -4 9 -9 9 -5 0
-16 3 -25 6 -9 3 -16 2 -16 -4z"/>
<path d="M1955 4420 c-3 -5 1 -10 9 -10 8 0 18 5 21 10 3 6 -1 10 -9 10 -8 0
-18 -4 -21 -10z"/>
<path d="M3160 4390 c0 -5 4 -10 9 -10 5 0 18 -3 28 -6 16 -5 16 -4 -1 10 -23
18 -36 20 -36 6z"/>
<path d="M1794 4364 c-17 -14 -17 -15 -1 -10 10 3 23 6 28 6 5 0 9 5 9 10 0
14 -13 12 -36 -6z"/>
<path d="M3344 4315 c21 -16 32 -13 21 4 -3 6 -14 11 -23 11 -15 -1 -15 -2 2
-15z"/>
<path d="M1634 4295 c-10 -8 -14 -15 -8 -15 5 0 19 7 30 15 10 8 14 15 8 15
-5 0 -19 -7 -30 -15z"/>
<path d="M3498 4234 c13 -9 26 -13 30 -9 8 8 -17 25 -38 25 -9 0 -6 -6 8 -16z"/>
<path d="M1470 4205 c-16 -19 0 -19 26 0 16 12 16 14 3 15 -9 0 -22 -7 -29
-15z"/>
<path d="M3640 4151 c0 -5 7 -12 16 -15 24 -9 28 -7 14 9 -14 17 -30 20 -30 6z"/>
<path d="M804 4088 c-371 -401 -596 -936 -618 -1468 l-5 -115 9 95 c39 401
101 638 240 925 96 198 215 373 368 543 41 45 72 82 69 82 -3 0 -31 -28 -63
-62z"/>
<path d="M1334 4116 c-10 -8 -16 -17 -13 -20 3 -3 14 1 25 8 10 8 16 17 13 20
-3 3 -14 -1 -25 -8z"/>
<path d="M3780 4053 c0 -13 29 -38 35 -31 3 3 -4 13 -15 23 -11 10 -20 13 -20
8z"/>
<path d="M1195 4000 c-10 -11 -13 -20 -8 -20 13 0 38 29 31 35 -3 3 -13 -4
-23 -15z"/>
<path d="M2257 3999 c-201 -35 -415 -123 -589 -240 -122 -83 -324 -285 -401
-401 -156 -238 -243 -489 -252 -733 l-4 -120 10 99 c37 389 177 694 439 956
262 264 570 407 940 440 62 5 115 12 118 15 12 12 -162 2 -261 -16z"/>
<path d="M4140 3937 c0 -2 15 -16 33 -33 l32 -29 -29 33 c-28 30 -36 37 -36
29z"/>
<path d="M1070 3885 c-20 -24 -6 -28 15 -5 10 11 13 20 8 20 -6 0 -16 -7 -23
-15z"/>
<path d="M4215 3850 c10 -11 20 -20 23 -20 3 0 -3 9 -13 20 -10 11 -20 20 -23
20 -3 0 3 -9 13 -20z"/>
<path d="M2460 3851 c0 -4 60 -11 133 -15 72 -3 148 -9 167 -12 25 -4 31 -2
20 5 -33 21 -320 41 -320 22z"/>
<path d="M4240 3816 c0 -2 8 -10 18 -17 15 -13 16 -12 3 4 -13 16 -21 21 -21
13z"/>
<path d="M1332 3704 c-116 -116 -208 -229 -194 -238 5 -3 24 16 43 42 19 26
54 70 79 98 25 28 54 61 66 75 11 13 45 45 75 70 30 26 51 50 47 54 -4 4 -56
-41 -116 -101z"/>
<path d="M4030 3802 c0 -11 22 -32 32 -32 5 0 4 9 -2 20 -11 20 -30 28 -30 12z"/>
<path d="M2050 3771 c-87 -32 -196 -86 -205 -101 -9 -15 -5 -14 96 37 52 26
96 48 99 48 24 3 102 30 106 36 9 15 -18 9 -96 -20z"/>
<path d="M4290 3750 c12 -16 24 -30 26 -30 3 0 -4 14 -16 30 -12 17 -24 30
-26 30 -3 0 4 -13 16 -30z"/>
<path d="M955 3750 c-10 -11 -13 -20 -8 -20 13 0 38 29 31 35 -3 3 -13 -4 -23
-15z"/>
<path d="M3090 3726 c0 -2 37 -25 83 -51 45 -26 105 -64 132 -84 65 -48 75
-54 75 -44 0 14 -117 97 -200 142 -71 39 -90 46 -90 37z"/>
<path d="M4349 3665 c5 -11 17 -29 26 -40 l16 -20 -10 20 c-5 11 -17 29 -26
40 l-16 20 10 -20z"/>
<path d="M4140 3661 c0 -5 7 -14 15 -21 16 -14 18 -10 9 14 -6 17 -24 22 -24
7z"/>
<path d="M850 3605 c-20 -24 -6 -28 15 -5 10 11 13 20 8 20 -6 0 -16 -7 -23
-15z"/>
<path d="M4415 3550 c9 -16 18 -30 21 -30 2 0 -2 14 -11 30 -9 17 -18 30 -21
30 -2 0 2 -13 11 -30z"/>
<path d="M4242 3500 c7 -11 16 -20 21 -20 4 0 3 9 -3 20 -6 11 -15 20 -20 20
-6 0 -5 -9 2 -20z"/>
<path d="M762 3459 c-7 -12 -11 -24 -7 -27 7 -8 25 17 25 36 0 17 -3 15 -18
-9z"/>
<path d="M1523 3413 c-73 -85 -143 -183 -143 -201 0 -8 22 17 49 55 28 39 75
98 105 131 31 33 56 62 56 66 0 18 -23 0 -67 -51z"/>
<path d="M4491 3405 c0 -5 8 -26 19 -45 11 -19 19 -30 19 -25 0 6 -8 26 -19
45 -11 19 -19 31 -19 25z"/>
<path d="M3555 3360 c5 -7 33 -47 63 -89 30 -42 68 -103 85 -136 16 -33 32
-54 34 -47 9 25 -147 270 -179 281 -6 2 -8 -1 -3 -9z"/>
<path d="M4320 3358 c0 -9 5 -20 11 -23 17 -11 20 0 4 21 -13 17 -14 17 -15 2z"/>
<path d="M4536 3300 c3 -14 11 -32 16 -40 6 -10 7 -7 2 10 -3 14 -11 32 -16
40 -6 10 -7 7 -2 -10z"/>
<path d="M4566 3225 c43 -150 57 -203 74 -284 25 -126 40 -249 40 -336 0 -38
5 -77 10 -85 13 -19 5 117 -16 279 -16 122 -71 354 -98 411 -9 19 -14 26 -10
15z"/>
<path d="M4390 3193 c0 -12 5 -25 10 -28 13 -8 13 15 0 35 -8 12 -10 11 -10
-7z"/>
<path d="M906 3000 c-42 -132 -84 -404 -56 -360 5 8 10 31 10 51 0 47 34 219
61 304 11 37 18 72 16 78 -2 7 -16 -26 -31 -73z"/>
<path d="M4440 3028 c0 -7 5 -20 10 -28 8 -12 10 -11 10 7 0 12 -4 25 -10 28
-5 3 -10 0 -10 -7z"/>
<path d="M4480 2853 c0 -12 5 -25 10 -28 13 -8 13 15 0 35 -8 12 -10 11 -10
-7z"/>
<path d="M186 2400 c6 -117 28 -281 50 -380 22 -100 47 -191 51 -187 2 2 -8
50 -22 106 -34 132 -65 344 -66 446 0 44 -5 89 -10 100 -6 13 -7 -17 -3 -85z"/>
<path d="M4030 2486 c0 -59 -25 -239 -45 -323 -46 -191 -119 -353 -240 -528
-75 -109 -87 -131 -45 -85 132 147 264 425 310 652 21 103 38 298 27 298 -4 0
-7 -6 -7 -14z"/>
<path d="M4510 2479 c0 -11 5 -17 10 -14 6 3 10 13 10 21 0 8 -4 14 -10 14 -5
0 -10 -9 -10 -21z"/>
<path d="M4687 2450 c-4 -30 -7 -75 -7 -99 0 -141 -72 -456 -145 -635 -59
-144 -63 -156 -21 -71 84 169 156 451 177 691 11 133 9 214 -4 114z"/>
<path d="M2551 2454 c-11 -14 -30 -51 -41 -82 -34 -91 -113 -423 -103 -433 5
-5 18 33 32 94 17 75 39 134 83 223 59 118 83 204 60 218 -6 3 -20 -5 -31 -20z
m16 -42 c-8 -41 -56 -146 -63 -139 -10 10 48 167 62 167 4 0 4 -13 1 -28z"/>
<path d="M2881 2364 c-6 -21 -16 -61 -22 -90 l-12 -52 -143 -7 c-79 -4 -144
-11 -144 -16 0 -5 62 -6 140 -2 77 3 140 4 140 0 0 -3 -12 -54 -26 -114 -14
-59 -27 -120 -29 -135 -2 -15 -6 -33 -10 -40 -4 -7 0 -5 9 6 8 10 29 78 46
152 l32 134 161 1 c89 1 209 0 266 -1 73 -1 101 1 97 9 -5 8 -87 11 -262 11
-197 0 -254 3 -254 13 0 6 9 45 19 85 11 39 15 74 11 77 -5 3 -14 -11 -19 -31z"/>
<path d="M4500 2315 c0 -14 5 -25 10 -25 6 0 10 11 10 25 0 14 -4 25 -10 25
-5 0 -10 -11 -10 -25z"/>
<path d="M4477 2140 c-3 -11 -1 -23 4 -26 5 -3 9 6 9 20 0 31 -6 34 -13 6z"/>
<path d="M3804 2124 c-4 -10 -18 -46 -30 -78 -21 -53 -25 -80 -8 -64 10 11 55
150 50 155 -3 3 -9 -3 -12 -13z"/>
<path d="M560 2098 c0 -7 5 -20 10 -28 8 -12 10 -9 10 13 0 15 -4 27 -10 27
-5 0 -10 -6 -10 -12z"/>
<path d="M2890 2020 c0 -5 7 -10 15 -10 8 0 15 5 15 10 0 6 -7 10 -15 10 -8 0
-15 -4 -15 -10z"/>
<path d="M3628 2004 c-27 -14 -54 -51 -45 -60 2 -3 18 9 35 26 21 21 40 30 62
30 18 0 29 4 25 10 -9 14 -45 12 -77 -6z"/>
<path d="M3311 1970 c-8 -24 -7 -30 5 -30 7 0 14 6 14 14 0 8 3 21 6 30 3 9 2
16 -4 16 -6 0 -15 -13 -21 -30z"/>
<path d="M4440 1981 c0 -5 -3 -17 -7 -27 -4 -11 -3 -15 4 -11 14 9 24 47 12
47 -5 0 -9 -4 -9 -9z"/>
<path d="M2186 1959 c-15 -18 -16 -26 -6 -49 7 -16 20 -36 31 -46 24 -22 9
-54 -26 -54 -27 0 -41 31 -33 74 4 17 1 23 -9 19 -7 -3 -13 -20 -13 -43 0 -67
60 -93 104 -45 13 14 34 25 48 25 32 0 92 40 96 64 3 16 1 15 -17 -3 -23 -23
-62 -41 -87 -41 -10 0 -14 12 -14 38 0 39 -22 82 -43 82 -7 0 -21 -9 -31 -21z
m48 -15 c3 -9 6 -29 6 -46 0 -30 0 -31 -20 -13 -11 10 -20 28 -20 40 0 35 23
48 34 19z"/>
<path d="M3097 1959 c-15 -17 -16 -23 -3 -53 8 -19 22 -38 32 -44 20 -11 13
-39 -12 -49 -41 -15 -75 56 -47 97 9 12 10 20 3 20 -6 0 -14 -9 -18 -21 -5
-11 -10 -19 -13 -17 -3 2 -20 -14 -38 -34 -38 -44 -96 -82 -111 -73 -12 8 -13
66 -1 118 7 28 6 37 -2 34 -26 -8 -35 -137 -12 -161 12 -12 21 -13 46 -4 39
13 109 79 109 102 0 9 4 15 9 12 5 -3 7 -15 4 -26 -15 -58 70 -96 103 -45 11
16 26 25 43 25 30 0 91 34 91 51 0 6 -15 1 -34 -10 -18 -12 -43 -21 -55 -21
-18 0 -21 6 -21 41 0 73 -34 101 -73 58z m51 -50 l3 -44 -22 22 c-16 16 -20
28 -15 48 10 40 31 24 34 -26z"/>
<path d="M3712 1905 c-35 -71 -40 -91 -16 -60 16 21 64 110 64 120 0 3 -4 5
-8 5 -4 0 -22 -29 -40 -65z"/>
<path d="M3344 1916 c-29 -36 -52 -40 -34 -5 7 13 7 19 0 19 -5 0 -11 -6 -12
-12 0 -7 -2 -17 -2 -23 -1 -5 -4 -14 -8 -20 -11 -18 -31 -122 -26 -136 3 -8
23 24 45 71 51 107 67 129 84 113 6 -6 21 -36 33 -65 17 -43 26 -54 47 -56 29
-3 70 32 91 79 7 16 16 29 20 29 5 0 8 5 8 11 0 17 -27 -9 -61 -58 -38 -55
-65 -57 -85 -5 -39 100 -58 111 -100 58z"/>
<path d="M610 1923 c0 -12 5 -25 10 -28 13 -8 13 15 0 35 -8 12 -10 11 -10 -7z"/>
<path d="M2502 1923 c-22 -41 -24 -88 -5 -112 l19 -24 36 32 c20 17 37 31 40
31 2 0 2 -17 0 -37 -2 -22 3 -46 11 -57 13 -17 15 -17 45 -2 37 19 112 110
112 134 -1 12 -7 8 -22 -13 -41 -56 -107 -117 -119 -110 -8 5 -9 28 -5 76 4
38 4 69 -1 69 -4 0 -28 -23 -52 -51 -38 -44 -45 -49 -53 -34 -7 11 -6 33 1 62
13 49 9 66 -7 36z"/>
<path d="M3779 1830 l-93 -110 -43 77 c-23 43 -43 84 -43 91 0 6 -5 12 -11 12
-18 0 -1 -47 42 -120 21 -36 39 -70 39 -76 0 -5 -18 -36 -40 -69 -54 -80 -67
-122 -47 -143 14 -14 18 -14 40 1 42 28 68 81 72 148 2 34 9 68 17 77 126 148
178 211 178 216 0 21 -29 -7 -111 -104z m-113 -245 c-18 -47 -60 -93 -70 -76
-7 11 10 50 53 119 22 36 26 39 29 21 2 -12 -4 -41 -12 -64z"/>
<path d="M2391 1915 c0 -11 -11 -67 -25 -125 -34 -141 -70 -349 -62 -357 15
-15 27 18 31 83 3 38 20 141 39 228 24 106 32 164 26 175 -8 14 -9 13 -9 -4z"/>
<path d="M2772 1873 c-14 -25 -92 -420 -99 -500 -4 -41 -2 -63 4 -63 15 0 23
24 16 48 -5 21 20 164 68 391 28 132 31 161 11 124z"/>
<path d="M4380 1801 c-7 -15 -7 -21 0 -21 12 0 25 28 17 36 -3 3 -10 -4 -17
-15z"/>
<path d="M300 1783 c0 -15 42 -124 47 -120 2 2 -8 33 -21 68 -14 35 -25 59
-26 52z"/>
<path d="M667 1750 c6 -22 23 -38 23 -21 0 17 -12 41 -20 41 -5 0 -6 -9 -3
-20z"/>
<path d="M4132 1603 c-59 -107 -159 -246 -242 -334 l-68 -74 -74 70 -73 70 69
-72 70 -72 -25 -27 c-111 -120 -389 -294 -594 -374 -69 -26 -96 -46 -50 -36
54 13 252 107 350 166 102 62 241 167 289 219 35 37 42 38 75 9 l26 -23 -22
26 c-30 34 -29 39 13 80 83 79 194 229 273 367 44 79 45 82 33 82 -4 0 -27
-35 -50 -77z"/>
<path d="M4310 1641 c-7 -15 -7 -21 0 -21 12 0 25 28 17 36 -3 3 -10 -4 -17
-15z"/>
<path d="M350 1645 c0 -5 5 -17 10 -25 5 -8 10 -10 10 -5 0 6 -5 17 -10 25 -5
8 -10 11 -10 5z"/>
<path d="M740 1605 c0 -15 18 -40 24 -34 3 3 -1 14 -9 25 -8 10 -14 15 -15 9z"/>
<path d="M371 1595 c0 -5 8 -26 19 -45 11 -19 19 -30 19 -25 0 6 -8 26 -19 45
-11 19 -19 31 -19 25z"/>
<path d="M3445 1549 c-22 -22 -79 -70 -128 -107 -48 -36 -85 -67 -82 -70 13
-14 259 190 253 209 -2 5 -21 -9 -43 -32z"/>
<path d="M4226 1484 c-9 -24 -7 -28 9 -14 17 14 20 30 6 30 -5 0 -12 -7 -15
-16z"/>
<path d="M3625 1478 c-11 -6 -46 -36 -78 -67 -178 -171 -452 -314 -717 -373
-92 -20 -130 -23 -310 -22 -173 0 -220 4 -303 22 -196 43 -360 113 -526 222
-51 33 -95 59 -98 57 -8 -9 132 -101 232 -154 120 -62 303 -125 435 -149 131
-24 390 -24 525 0 262 47 551 184 728 346 30 28 58 50 63 50 4 0 24 -15 44
-32 l35 -33 -32 35 c-18 20 -33 39 -33 43 0 4 15 21 33 37 34 31 35 37 2 18z"/>
<path d="M4381 1401 c-64 -107 -172 -252 -263 -352 l-67 -74 -72 70 c-40 39
-69 65 -65 59 3 -7 -1 -17 -9 -24 -8 -7 -15 -17 -15 -23 0 -5 9 -2 20 8 21 19
22 18 76 -36 l55 -55 -68 -65 c-192 -181 -488 -357 -744 -443 -182 -61 -397
-102 -586 -113 -62 -3 -113 -10 -113 -14 0 -4 21 -6 48 -4 26 3 88 7 137 9
392 22 850 207 1180 476 187 153 395 400 515 613 51 90 29 67 -29 -32z"/>
<path d="M460 1410 c17 -33 33 -60 35 -60 3 0 -8 27 -25 60 -17 33 -33 60 -35
60 -3 0 8 -27 25 -60z"/>
<path d="M820 1452 c0 -10 22 -32 32 -32 5 0 3 9 -4 20 -13 20 -28 27 -28 12z"/>
<path d="M1460 1432 c0 -10 43 -52 53 -52 16 0 5 18 -23 38 -16 13 -30 19 -30
14z"/>
<path d="M1260 1391 c0 -30 341 -313 357 -297 4 3 4 8 2 9 -2 2 -39 29 -81 60
-43 31 -103 79 -133 107 -30 27 -59 50 -63 50 -4 0 -20 18 -36 40 -29 38 -46
50 -46 31z"/>
<path d="M4130 1341 c-7 -15 -7 -21 0 -21 12 0 25 28 17 36 -3 3 -10 -4 -17
-15z"/>
<path d="M510 1320 c6 -11 13 -20 16 -20 2 0 0 9 -6 20 -6 11 -13 20 -16 20
-2 0 0 -9 6 -20z"/>
<path d="M932 1290 c13 -20 28 -27 28 -12 0 10 -22 32 -32 32 -5 0 -3 -9 4
-20z"/>
<path d="M535 1280 c61 -111 213 -297 364 -448 287 -286 662 -494 1072 -596
324 -80 697 -86 1042 -15 380 78 817 305 1082 563 l80 78 -80 -72 c-329 -294
-697 -479 -1125 -564 -672 -134 -1361 35 -1899 464 -168 133 -351 331 -473
510 -50 73 -80 112 -63 80z"/>
<path d="M1990 1282 c0 -16 144 -63 293 -96 9 -2 17 -1 17 4 0 4 -35 16 -77
25 -66 15 -130 35 -215 70 -10 4 -18 3 -18 -3z"/>
<path d="M2835 1219 c-38 -10 -99 -21 -135 -25 -73 -7 -115 -23 -64 -24 47 0
191 27 259 49 76 24 33 25 -60 0z"/>
<path d="M4022 1208 c-14 -14 -16 -28 -3 -28 9 0 24 30 18 36 -2 2 -9 -2 -15
-8z"/>
<path d="M1040 1172 c0 -5 7 -15 15 -22 8 -7 15 -8 15 -2 0 5 -7 15 -15 22 -8
7 -15 8 -15 2z"/>
<path d="M1175 1030 c10 -11 20 -18 23 -15 7 6 -18 35 -31 35 -5 0 -2 -9 8
-20z"/>
<path d="M3246 1009 c-74 -39 -215 -92 -284 -109 -47 -11 -80 -30 -52 -30 47
0 420 146 420 164 0 12 -27 4 -84 -25z"/>
<path d="M3759 954 c-12 -14 -11 -16 5 -13 11 2 21 10 24 17 5 17 -13 15 -29
-4z"/>
<path d="M1308 918 c12 -12 25 -19 28 -15 4 4 -1 14 -12 22 -29 22 -41 18 -16
-7z"/>
<path d="M2010 911 c0 -20 234 -69 365 -78 55 -3 98 -3 95 0 -3 3 -66 12 -140
21 -74 9 -177 27 -227 40 -51 13 -93 21 -93 17z"/>
<path d="M3624 856 c-10 -8 -15 -18 -11 -22 4 -4 15 0 24 9 22 21 12 31 -13
13z"/>
<path d="M1440 832 c0 -4 9 -13 20 -20 22 -13 27 -3 8 16 -14 14 -28 16 -28 4z"/>
<path d="M3465 759 c-11 -17 0 -20 21 -4 17 13 17 14 2 15 -9 0 -20 -5 -23
-11z"/>
<path d="M1604 735 c11 -8 25 -15 30 -15 6 0 2 7 -8 15 -11 8 -25 15 -30 15
-6 0 -2 -7 8 -15z"/>
<path d="M3314 685 c-17 -13 -17 -14 -2 -15 9 0 20 5 23 11 11 17 0 20 -21 4z"/>
<path d="M1760 660 c20 -13 43 -13 35 0 -3 6 -16 10 -28 10 -18 0 -19 -2 -7
-10z"/>
<path d="M3140 620 c-12 -8 -11 -10 7 -10 12 0 25 5 28 10 8 13 -15 13 -35 0z"/>
<path d="M1925 600 c3 -5 13 -10 21 -10 8 0 14 5 14 10 0 6 -9 10 -21 10 -11
0 -17 -4 -14 -10z"/>
<path d="M2965 570 c-3 -5 3 -10 14 -10 11 0 23 5 26 10 3 6 -3 10 -14 10 -11
0 -23 -4 -26 -10z"/>
<path d="M2090 560 c0 -5 12 -10 28 -9 24 0 25 1 7 9 -27 12 -35 12 -35 0z"/>
<path d="M2805 540 c-18 -8 -17 -9 8 -9 15 -1 27 4 27 9 0 12 -8 12 -35 0z"/>
<path d="M2260 530 c0 -5 12 -10 26 -10 14 0 23 4 19 10 -3 6 -15 10 -26 10
-10 0 -19 -4 -19 -10z"/>
<path d="M2615 520 c-4 -6 5 -10 19 -10 14 0 26 5 26 10 0 6 -9 10 -19 10 -11
0 -23 -4 -26 -10z"/>
<path d="M2453 513 c9 -2 23 -2 30 0 6 3 -1 5 -18 5 -16 0 -22 -2 -12 -5z"/>
</g>
</svg>
